<?xml version="1.0" encoding="iso-8859-1"?><!DOCTYPE svg PUBLIC "-//W3C//DTD SVG 1.1//EN" "http://www.w3.org/Graphics/SVG/1.1/DTD/svg11.dtd"><svg xmlns="http://www.w3.org/2000/svg" xmlns:xlink="http://www.w3.org/1999/xlink"><defs><svg viewBox="0 0 64 50" id="3d-glasses"><path d="M62 16H2c-1.104 0-2 .896-2 2V40c0 2.21 1.79 4 4 4h18c.738 0 1.376-.404 1.723-1h.042l4.09-5.348c2.264-2.265 5.936-2.265 8.2 0L40.222 43h.058c.346.596.984 1 1.723 1h18c2.21 0 4-1.79 4-4V18c0-1.104-.895-2-2-2z" fill-rule="evenodd" clip-rule="evenodd" fill="#E6E6E6"/><path d="M20.353 0c-3.494 0-5.647 2.91-5.647 2.91L2 16h14.118c-2.237-3.84 3.267-8.727 5.647-8.727 2.38 0 4.235-.932 4.235-2.91C26 2.388 23.847 0 20.353 0zM62 16L49.294 2.91S47.14 0 43.647 0 38 2.387 38 4.364c0 1.977 1.855 2.91 4.235 2.91S50.12 12.16 47.882 16H62z" fill-rule="evenodd" clip-rule="evenodd" fill="#ccc"/><path d="M28 20H6c-1.105 0-2 .896-2 2v16c0 1.105.895 2 2 2h12c1.104 0 2.875-.457 4-2 0 0 5.01-5.7 7-8 .9-1.04 1-1.875 1-3v-5c0-1.104-.895-2-2-2z" fill="#48A0DC"/><path d="M58 20H36c-1.105 0-2 .896-2 2v5c0 1.125.1 1.96 1 3 1.99 2.3 7 8 7 8 1.125 1.543 2.895 2 4 2h12c1.104 0 2-.895 2-2V22c0-1.104-.895-2-2-2z" fill="#ED7161"/></svg><svg viewBox="0 0 64 64" id="bell"><path fill-rule="evenodd" clip-rule="evenodd" fill="#fc6" d="M32 63.938c2.94 0 5.32-2.38 5.32-5.326H26.676c0 2.945 2.38 5.326 5.323 5.326zm21.29-26.152v-11.11c0-9.942-6.825-18.268-16.038-20.61.03-.225.068-.447.068-.68 0-2.942-2.38-5.323-5.32-5.323-2.943 0-5.324 2.38-5.324 5.323 0 .233.04.455.068.68-9.212 2.344-16.036 10.67-16.036 20.61v11.11c-3.098 1.098-5.322 4.047-5.322 7.52 0 4.407 3.576 7.983 7.984 7.983H50.625c4.41 0 7.987-3.577 7.987-7.984 0-3.472-2.223-6.42-5.322-7.52z"/></svg><svg viewBox="0 0 44 63.999" id="flash"><path d="M43.836 25.206C43.52 24.474 42.8 24 42 24l-15.486 2L31.95 2.45c.205-.894-.22-1.812-1.035-2.23-.81-.417-1.807-.23-2.414.455L.5 36.677c-.52.587-.645 1.427-.322 2.144S1.214 40 2 40l15.292-2-5.203 23.41c-.275.89.1 1.85.904 2.317.314.184.66.27 1.005.27.537 0 1.067-.216 1.456-.628l28-36c.548-.58.696-1.432.38-2.164z" fill="#fc6"/></svg><svg viewBox="0 0 64 64" id="shield"><path fill="#88C057" d="M48.268 8.006c-6.576 0-12.434-3.04-16.268-7.783-3.834 4.743-9.692 7.783-16.267 7.783-4.3 0-8.295-1.3-11.62-3.527v31.495c0 12.864 18.556 27.803 27.71 27.803 9.763 0 28.063-14.938 28.063-27.803V4.48c-3.325 2.225-7.32 3.526-11.618 3.526zm6.242 27.737c0 9.938-14.04 21.444-21.646 21.572V8.005c2.976 3.683 7.522 6.042 12.624 6.042 3.34 0 6.44-1.01 9.02-2.74v24.436z"/></svg></defs></svg>