<?xml version="1.0" encoding="iso-8859-1"?>
<!-- Generator: Adobe Illustrator 16.0.0, SVG Export Plug-In . SVG Version: 6.00 Build 0)  -->
<!DOCTYPE svg PUBLIC "-//W3C//DTD SVG 1.1//EN" "http://www.w3.org/Graphics/SVG/1.1/DTD/svg11.dtd">
<svg version="1.1" id="Layer_1" xmlns="http://www.w3.org/2000/svg" xmlns:xlink="http://www.w3.org/1999/xlink" x="0px" y="0px"
	 width="64px" height="50px" viewBox="0 0 64 50" style="enable-background:new 0 0 64 50;" xml:space="preserve">
<g id="Frame_3_">
	<g>
		<path style="fill-rule:evenodd;clip-rule:evenodd;fill:#E6E6E6;" d="M62,16h-2H4H2c-1.104,0-2,0.896-2,2v4.001
			c0,0.002,0,0.003,0,0.005v17.995C0,42.21,1.791,44,4,44h16h2c0.738,0,1.376-0.404,1.723-1h0.042l4.089-5.348
			c2.265-2.265,5.937-2.265,8.202,0L40.221,43h0.057c0.346,0.596,0.984,1,1.723,1h2h16c2.209,0,4-1.79,4-3.999v-18V20v-2
			C64,16.896,63.105,16,62,16z"/>
	</g>
</g>
<g id="Temples">
	<g>
		<path style="fill-rule:evenodd;clip-rule:evenodd;fill:#CCCCCC;" d="M20.353,0c-3.494,0-5.647,2.909-5.647,2.909L2,16h14.118
			c-2.237-3.84,3.267-8.727,5.647-8.727C24.146,7.273,26,6.341,26,4.364C26,2.387,23.847,0,20.353,0z M62,16L49.294,2.909
			c0,0-2.153-2.909-5.647-2.909C40.153,0,38,2.387,38,4.364c0,1.977,1.855,2.909,4.235,2.909S50.119,12.16,47.882,16H62z"/>
	</g>
</g>
<g id="Blue_Glass">
	<g>
		<path style="fill:#48A0DC;" d="M28,20H6c-1.105,0-2,0.896-2,2.001v16c0,1.104,0.895,2,2,2h12c1.104,0,2.875-0.458,4-2
			c0,0,5.01-5.7,7-8.001c0.901-1.041,1-1.875,1-2.999c0-1.752,0-5,0-5C30,20.896,29.105,20,28,20z"/>
	</g>
</g>
<g id="Red_Glass">
	<g>
		<path style="fill:#ED7161;" d="M58,20H36c-1.105,0-2,0.896-2,2.001c0,0,0,3.248,0,5c0,1.124,0.099,1.958,1,2.999
			c1.99,2.301,7,8.001,7,8.001c1.125,1.542,2.895,2,4,2h12c1.104,0,2-0.896,2-2v-16C60,20.896,59.105,20,58,20z"/>
	</g>
</g>
<g>
</g>
<g>
</g>
<g>
</g>
<g>
</g>
<g>
</g>
<g>
</g>
<g>
</g>
<g>
</g>
<g>
</g>
<g>
</g>
<g>
</g>
<g>
</g>
<g>
</g>
<g>
</g>
<g>
</g>
</svg>
