<?xml version="1.0" encoding="utf-8"?>
<!-- Generator: Adobe Illustrator 16.0.0, SVG Export Plug-In . SVG Version: 6.00 Build 0)  -->
<!DOCTYPE svg PUBLIC "-//W3C//DTD SVG 1.1//EN" "http://www.w3.org/Graphics/SVG/1.1/DTD/svg11.dtd">
<svg version="1.1" id="Layer_1" xmlns="http://www.w3.org/2000/svg" xmlns:xlink="http://www.w3.org/1999/xlink" x="0px" y="0px"
	 width="64px" height="64px" viewBox="0 0 64 64" enable-background="new 0 0 64 64" xml:space="preserve">
<g id="Bell">
	<g>
		<path fill-rule="evenodd" clip-rule="evenodd" fill="#FFCC66" d="M31.999,63.938c2.941,0,5.321-2.381,5.321-5.326H26.676
			C26.676,61.557,29.057,63.938,31.999,63.938z M53.291,37.786V26.675c0-9.941-6.826-18.267-16.039-20.609
			c0.029-0.225,0.068-0.447,0.068-0.68c0-2.942-2.38-5.323-5.321-5.323c-2.942,0-5.323,2.381-5.323,5.323
			c0,0.233,0.04,0.455,0.068,0.68c-9.212,2.344-16.036,10.669-16.036,20.609v11.11c-3.098,1.099-5.322,4.048-5.322,7.521
			c0,4.407,3.576,7.983,7.984,7.983h13.306h5.323h5.321h13.306c4.411,0,7.987-3.576,7.987-7.983
			C58.613,41.834,56.39,38.885,53.291,37.786z"/>
	</g>
</g>
</svg>
