<?xml version="1.0" encoding="iso-8859-1"?>
<!-- Generator: Adobe Illustrator 16.0.0, SVG Export Plug-In . SVG Version: 6.00 Build 0)  -->
<!DOCTYPE svg PUBLIC "-//W3C//DTD SVG 1.1//EN" "http://www.w3.org/Graphics/SVG/1.1/DTD/svg11.dtd">
<svg version="1.1" id="Layer_1" xmlns="http://www.w3.org/2000/svg" xmlns:xlink="http://www.w3.org/1999/xlink" x="0px" y="0px"
	 width="44px" height="63.999px" viewBox="0 0 44 63.999" style="enable-background:new 0 0 44 63.999;" xml:space="preserve">
<g id="Flash_3_">
	<g>
		<path style="fill:#FFCC66;" d="M43.836,25.206c-0.316-0.732-1.037-1.207-1.836-1.207l-15.486,2l5.436-23.55
			c0.205-0.893-0.221-1.811-1.035-2.229c-0.809-0.417-1.807-0.23-2.414,0.455l-28,36.002c-0.52,0.587-0.646,1.427-0.323,2.144
			S1.214,39.999,2,39.999l15.292-2l-5.203,23.412c-0.274,0.889,0.102,1.85,0.905,2.316c0.314,0.184,0.661,0.271,1.005,0.271
			c0.538,0,1.068-0.217,1.457-0.629l28.001-36C44.004,26.789,44.152,25.938,43.836,25.206z"/>
	</g>
</g>
<g>
</g>
<g>
</g>
<g>
</g>
<g>
</g>
<g>
</g>
<g>
</g>
<g>
</g>
<g>
</g>
<g>
</g>
<g>
</g>
<g>
</g>
<g>
</g>
<g>
</g>
<g>
</g>
<g>
</g>
</svg>
