<?xml version="1.0" encoding="utf-8"?>
<!-- Generator: Adobe Illustrator 16.0.0, SVG Export Plug-In . SVG Version: 6.00 Build 0)  -->
<!DOCTYPE svg PUBLIC "-//W3C//DTD SVG 1.1//EN" "http://www.w3.org/Graphics/SVG/1.1/DTD/svg11.dtd">
<svg version="1.1" id="Layer_1" xmlns="http://www.w3.org/2000/svg" xmlns:xlink="http://www.w3.org/1999/xlink" x="0px" y="0px"
	 width="64px" height="64px" viewBox="0 0 64 64" enable-background="new 0 0 64 64" xml:space="preserve">
<g>
	<path fill="#88C057" d="M48.268,8.006c-6.576,0-12.434-3.04-16.268-7.783c-3.834,4.743-9.692,7.783-16.267,7.783
		c-4.3,0-8.295-1.301-11.619-3.527v8.176v23.32c0,12.864,18.555,27.803,27.709,27.803c9.763,0,28.063-14.938,28.063-27.803v-23.32
		V4.479C56.561,6.705,52.566,8.006,48.268,8.006z M54.51,35.743c0,9.938-14.039,21.444-21.646,21.572V8.006h0.001
		c2.975,3.682,7.521,6.041,12.623,6.041c3.34,0,6.441-1.01,9.021-2.741V35.743z"/>
</g>
</svg>
